<mxfile host="app.diagrams.net" agent="Mozilla/5.0 (Windows NT 10.0; Win64; x64; rv:138.0) Gecko/20100101 Firefox/138.0" version="27.0.4">
  <diagram name="Page-1" id="4R4HbyzW2zrfsN6rx2fl">
    <mxGraphModel dx="786" dy="471" grid="1" gridSize="10" guides="1" tooltips="1" connect="1" arrows="1" fold="1" page="1" pageScale="1" pageWidth="3300" pageHeight="4681" math="0" shadow="0">
      <root>
        <mxCell id="0" />
        <mxCell id="1" parent="0" />
        <mxCell id="RR2gA8lY_ycAd0ylY5Qf-24" value="2a Decision Making" style="text;html=1;align=right;verticalAlign=top;whiteSpace=wrap;rounded=0;dashed=1;fillColor=#f5f5f5;fontColor=#333333;strokeColor=#666666;strokeWidth=2;" name="text" vertex="1" parent="1">
          <mxGeometry x="370" y="820" width="380" height="230" as="geometry" />
        </mxCell>
        <mxCell id="RR2gA8lY_ycAd0ylY5Qf-23" value="1a Rule Generation" style="text;html=1;align=right;verticalAlign=top;whiteSpace=wrap;rounded=0;dashed=1;fillColor=#f5f5f5;fontColor=#333333;strokeColor=#666666;strokeWidth=2;" name="text" vertex="1" parent="1">
          <mxGeometry x="370" y="560" width="240" height="250" as="geometry" />
        </mxCell>
        <mxCell id="RR2gA8lY_ycAd0ylY5Qf-22" value="2a Attribute Reduction Using Rough Set Theory" style="text;html=1;align=left;verticalAlign=top;whiteSpace=wrap;rounded=0;dashed=1;fillColor=#f5f5f5;fontColor=#333333;strokeColor=#666666;strokeWidth=2;" name="text" vertex="1" parent="1">
          <mxGeometry x="370" y="360" width="410" height="190" as="geometry" />
        </mxCell>
        <mxCell id="RR2gA8lY_ycAd0ylY5Qf-21" value="1d Data Collection" style="text;html=1;align=left;verticalAlign=top;whiteSpace=wrap;rounded=0;dashed=1;fillColor=#f5f5f5;fontColor=#333333;strokeColor=#666666;strokeWidth=2;" name="text" vertex="1" parent="1">
          <mxGeometry x="370" y="200" width="410" height="150" as="geometry" />
        </mxCell>
        <mxCell id="RR2gA8lY_ycAd0ylY5Qf-3" style="edgeStyle=orthogonalEdgeStyle;rounded=0;orthogonalLoop=1;jettySize=auto;html=1;exitX=1;exitY=0.5;exitDx=0;exitDy=0;entryX=0;entryY=0.5;entryDx=0;entryDy=0;" edge="1" parent="1" source="RR2gA8lY_ycAd0ylY5Qf-1" target="RR2gA8lY_ycAd0ylY5Qf-2">
          <mxGeometry relative="1" as="geometry" />
        </mxCell>
        <mxCell id="RR2gA8lY_ycAd0ylY5Qf-1" value="data&#xa;Raw Clinical Data" style="rectangle;fillColor=#fff2cc;strokeColor=#d6b656;" name="data" vertex="1" parent="1">
          <mxGeometry x="340" y="230" width="100" height="50" as="geometry" />
        </mxCell>
        <mxCell id="RR2gA8lY_ycAd0ylY5Qf-5" style="edgeStyle=orthogonalEdgeStyle;rounded=0;orthogonalLoop=1;jettySize=auto;html=1;exitX=1;exitY=0.5;exitDx=0;exitDy=0;entryX=0.5;entryY=0;entryDx=0;entryDy=0;" edge="1" parent="1" source="RR2gA8lY_ycAd0ylY5Qf-2" target="RR2gA8lY_ycAd0ylY5Qf-4">
          <mxGeometry relative="1" as="geometry" />
        </mxCell>
        <mxCell id="RR2gA8lY_ycAd0ylY5Qf-2" value="transform" style="rounded=1;whiteSpace=wrap;html=1;arcSize=50;fillColor=#f8cecc;strokeColor=#b85450;" name="transform" vertex="1" parent="1">
          <mxGeometry x="520" y="230" width="100" height="50" as="geometry" />
        </mxCell>
        <mxCell id="RR2gA8lY_ycAd0ylY5Qf-7" style="edgeStyle=orthogonalEdgeStyle;rounded=0;orthogonalLoop=1;jettySize=auto;html=1;exitX=0.5;exitY=1;exitDx=0;exitDy=0;entryX=1;entryY=0.5;entryDx=0;entryDy=0;" edge="1" parent="1" source="RR2gA8lY_ycAd0ylY5Qf-4" target="RR2gA8lY_ycAd0ylY5Qf-6">
          <mxGeometry relative="1" as="geometry" />
        </mxCell>
        <mxCell id="RR2gA8lY_ycAd0ylY5Qf-4" value="data&#xa;Structured Data" style="rectangle;fillColor=#fff2cc;strokeColor=#d6b656;" name="data" vertex="1" parent="1">
          <mxGeometry x="650" y="330" width="100" height="50" as="geometry" />
        </mxCell>
        <mxCell id="RR2gA8lY_ycAd0ylY5Qf-6" value="infer:deduce" style="rounded=1;whiteSpace=wrap;html=1;arcSize=50;fillColor=#bac8d3;strokeColor=#23445d;" name="infer:deduce" vertex="1" parent="1">
          <mxGeometry x="520" y="430" width="100" height="50" as="geometry" />
        </mxCell>
        <mxCell id="RR2gA8lY_ycAd0ylY5Qf-12" style="edgeStyle=orthogonalEdgeStyle;rounded=0;orthogonalLoop=1;jettySize=auto;html=1;exitX=0.5;exitY=1;exitDx=0;exitDy=0;entryX=0.5;entryY=0;entryDx=0;entryDy=0;" edge="1" parent="1" source="RR2gA8lY_ycAd0ylY5Qf-8" target="RR2gA8lY_ycAd0ylY5Qf-11">
          <mxGeometry relative="1" as="geometry" />
        </mxCell>
        <mxCell id="RR2gA8lY_ycAd0ylY5Qf-8" value="data&#xa;Reduced Dataset" style="rectangle;fillColor=#fff2cc;strokeColor=#d6b656;" name="data" vertex="1" parent="1">
          <mxGeometry x="390" y="530" width="100" height="50" as="geometry" />
        </mxCell>
        <mxCell id="RR2gA8lY_ycAd0ylY5Qf-10" value="&lt;div&gt;error&lt;/div&gt;&lt;div&gt;&amp;nbsp; --&lt;/div&gt;&lt;div&gt;|&lt;/div&gt;&lt;div&gt;v&lt;/div&gt;" style="text;html=1;align=center;verticalAlign=middle;whiteSpace=wrap;rounded=0;dashed=1;fillColor=#f5f5f5;fontColor=#333333;strokeColor=#666666;strokeWidth=2;" name="text" vertex="1" parent="1">
          <mxGeometry x="440" y="430" width="80" height="100" as="geometry" />
        </mxCell>
        <mxCell id="RR2gA8lY_ycAd0ylY5Qf-14" style="edgeStyle=orthogonalEdgeStyle;rounded=0;orthogonalLoop=1;jettySize=auto;html=1;exitX=0.5;exitY=1;exitDx=0;exitDy=0;entryX=0.5;entryY=0;entryDx=0;entryDy=0;" edge="1" parent="1" source="RR2gA8lY_ycAd0ylY5Qf-11" target="RR2gA8lY_ycAd0ylY5Qf-13">
          <mxGeometry relative="1" as="geometry" />
        </mxCell>
        <mxCell id="RR2gA8lY_ycAd0ylY5Qf-11" value="generate:train" style="rounded=1;whiteSpace=wrap;html=1;arcSize=50;fillColor=#e1d5e7;strokeColor=#9673a6;" name="generate:train" vertex="1" parent="1">
          <mxGeometry x="390" y="660" width="100" height="50" as="geometry" />
        </mxCell>
        <mxCell id="RR2gA8lY_ycAd0ylY5Qf-16" style="edgeStyle=orthogonalEdgeStyle;rounded=0;orthogonalLoop=1;jettySize=auto;html=1;exitX=0.5;exitY=1;exitDx=0;exitDy=0;entryX=0;entryY=0.5;entryDx=0;entryDy=0;" edge="1" parent="1" source="RR2gA8lY_ycAd0ylY5Qf-13" target="RR2gA8lY_ycAd0ylY5Qf-15">
          <mxGeometry relative="1" as="geometry" />
        </mxCell>
        <mxCell id="RR2gA8lY_ycAd0ylY5Qf-13" value="model:statistical&#xa;IL Algorithms" style="shape=hexagon;perimeter=hexagonPerimeter2;fillColor=#b0e3e6;strokeColor=#0e8088;" name="model" vertex="1" parent="1">
          <mxGeometry x="380" y="790" width="120" height="50" as="geometry" />
        </mxCell>
        <mxCell id="RR2gA8lY_ycAd0ylY5Qf-20" style="edgeStyle=orthogonalEdgeStyle;rounded=0;orthogonalLoop=1;jettySize=auto;html=1;exitX=1;exitY=0.5;exitDx=0;exitDy=0;entryX=0;entryY=0.5;entryDx=0;entryDy=0;" edge="1" parent="1" source="RR2gA8lY_ycAd0ylY5Qf-15" target="RR2gA8lY_ycAd0ylY5Qf-19">
          <mxGeometry relative="1" as="geometry" />
        </mxCell>
        <mxCell id="RR2gA8lY_ycAd0ylY5Qf-15" value="infer:deduce" style="rounded=1;whiteSpace=wrap;html=1;arcSize=50;fillColor=#bac8d3;strokeColor=#23445d;" name="infer:deduce" vertex="1" parent="1">
          <mxGeometry x="520" y="890" width="100" height="50" as="geometry" />
        </mxCell>
        <mxCell id="RR2gA8lY_ycAd0ylY5Qf-18" style="edgeStyle=orthogonalEdgeStyle;rounded=0;orthogonalLoop=1;jettySize=auto;html=1;entryX=0.5;entryY=1;entryDx=0;entryDy=0;" edge="1" parent="1" source="RR2gA8lY_ycAd0ylY5Qf-17" target="RR2gA8lY_ycAd0ylY5Qf-15">
          <mxGeometry relative="1" as="geometry" />
        </mxCell>
        <mxCell id="RR2gA8lY_ycAd0ylY5Qf-17" value="data&#xa;Patient Data" style="rectangle;fillColor=#fff2cc;strokeColor=#d6b656;" name="data" vertex="1" parent="1">
          <mxGeometry x="520" y="1020" width="100" height="50" as="geometry" />
        </mxCell>
        <mxCell id="RR2gA8lY_ycAd0ylY5Qf-19" value="symbol&#xa;Various Clinical&#xa;Predictions" style="rectangle;fillColor=#dae8fc;strokeColor=#6c8ebf;" name="symbol" vertex="1" parent="1">
          <mxGeometry x="700" y="890" width="100" height="50" as="geometry" />
        </mxCell>
      </root>
    </mxGraphModel>
  </diagram>
</mxfile>
